<?xml version="1.0" encoding="UTF-8" standalone="no"?>
<svg
   xmlns:dc="http://purl.org/dc/elements/1.1/"
   xmlns:cc="http://creativecommons.org/ns#"
   xmlns:rdf="http://www.w3.org/1999/02/22-rdf-syntax-ns#"
   xmlns:svg="http://www.w3.org/2000/svg"
   xmlns="http://www.w3.org/2000/svg"
   xmlns:sodipodi="http://sodipodi.sourceforge.net/DTD/sodipodi-0.dtd"
   xmlns:inkscape="http://www.inkscape.org/namespaces/inkscape"
   width="600"
   height="200"
   viewBox="0 0 600 200"
   version="1.1"
   id="svg12"
   sodipodi:docname="sling.svg"
   inkscape:version="0.92.4 (5da689c313, 2019-01-14)">
  <metadata
     id="metadata18">
    <rdf:RDF>
      <cc:Work
         rdf:about="">
        <dc:format>image/svg+xml</dc:format>
        <dc:type
           rdf:resource="http://purl.org/dc/dcmitype/StillImage" />
        <dc:title>print-logo</dc:title>
      </cc:Work>
    </rdf:RDF>
  </metadata>
  <defs
     id="defs16" />
  <sodipodi:namedview
     pagecolor="#ffffff"
     bordercolor="#666666"
     borderopacity="1"
     objecttolerance="10"
     gridtolerance="10"
     guidetolerance="10"
     inkscape:pageopacity="0"
     inkscape:pageshadow="2"
     inkscape:window-width="1920"
     inkscape:window-height="1080"
     id="namedview14"
     showgrid="false"
     inkscape:zoom="0.87964084"
     inkscape:cx="527.55507"
     inkscape:cy="-86.858601"
     inkscape:window-x="0"
     inkscape:window-y="0"
     inkscape:window-maximized="0"
     inkscape:current-layer="svg12" />
  <title
     id="title2">print-logo</title>
  <g
     id="g10"
     style="fill:none;fill-rule:evenodd"
     transform="matrix(3.9503384,0,0,3.9503384,40.132181,21.001373)">
    <path
       d="m 55.178,6.887 h 4.013 v 15.849 h 7.223 v 3.17 H 55.178 M 74.44,6.887 h 4.012 V 25.906 H 74.44 Z m 11.235,19.019 3.6,0.026 V 12.44 l 8.438,13.466 h 4.414 V 6.886 H 98.516 V 20.358 L 89.688,6.887 h -4.013 m 36.115,17.038 c -1.521,1.42 -2.708,1.98 -4.815,1.98 -1.147,0 -3.953,-0.119 -6.22,-2.344 -1.095,-1.099 -2.609,-3.25 -2.609,-7.165 0,-2.413 0.527,-5.142 2.022,-7.046 0.853,-1.072 2.991,-3.256 6.807,-3.256 0.533,0 1.836,0.013 3.196,0.522 1.228,0.482 3.602,1.742 4.829,5.013 l -3.362,1.341 c -0.32,-0.911 -1.306,-3.727 -4.588,-3.727 -0.64,0 -2.134,0.107 -3.388,1.368 -0.907,0.938 -1.904,2.863 -1.904,5.785 0,0.778 -0.155,3.328 2.006,5.151 0.934,0.778 2.01,0.793 3.21,0.793 1.869,0 3.678,-0.656 4.398,-2.425 0.16,-0.376 0.311,-0.68 0.418,-1.538 h -4.815 v -3.17 L 125,15.115 v 10.79 h -3.21 m -81.905,0.042 c -1.124,0 -4.74,-0.053 -7.363,-2.815 a 6.944,6.944 0 0 1 -0.91,-1.234 l 2.971,-2.064 c 0.831,1.233 2.383,2.842 5.864,2.842 0.161,0 0.83,0 1.393,-0.134 0.401,-0.08 2.248,-0.59 2.248,-2.36 0,-0.187 -0.026,-0.696 -0.347,-1.126 -0.643,-0.858 -2.356,-1.098 -3.294,-1.313 l -2.249,-0.51 c -0.964,-0.214 -2.008,-0.428 -2.865,-0.884 -0.883,-0.456 -2.704,-1.663 -2.704,-4.398 0,-0.429 0.054,-1.662 0.723,-2.788 0.857,-1.448 2.75,-3.069 6.578,-3.069 1.687,0 5.176,0.227 7.8,3.793 l -2.917,2.172 c -0.59,-0.94 -1.93,-2.816 -4.901,-2.816 -0.187,0 -2.57,-0.026 -3.347,1.448 a 1.697,1.697 0 0 0 -0.214,0.858 c 0,0.322 0.08,0.59 0.24,0.858 0.456,0.778 1.5,1.019 3.24,1.395 l 1.955,0.428 c 1.794,0.403 3.775,0.939 5.034,2.414 0.536,0.59 1.098,1.447 1.098,3.19 0,1.716 -0.536,3.03 -1.848,4.156 -2.276,1.93 -5.328,1.957 -6.185,1.957 z"
       id="path4"
       inkscape:connector-curvature="0"
       style="fill:#0085ff" />
    <path
       d="m 38.502,36 h -1.016 l -0.968,-3.406 a 13.158,13.158 0 0 1 -0.157,-0.643 6.97,6.97 0 0 1 -0.113,-0.584 11.1,11.1 0 0 1 -0.127,0.649 8.997,8.997 0 0 1 -0.146,0.593 L 35.029,36 h -1.015 l -0.739,-2.86 -0.75,-2.85 h 0.954 l 0.816,3.327 c 0.128,0.534 0.219,1.005 0.273,1.414 0.029,-0.221 0.072,-0.468 0.13,-0.742 0.057,-0.273 0.109,-0.495 0.156,-0.664 l 0.93,-3.336 h 0.925 l 0.953,3.352 c 0.091,0.31 0.188,0.773 0.29,1.39 0.038,-0.372 0.132,-0.846 0.28,-1.422 l 0.813,-3.32 h 0.945 z m 8.266,0 h -1.015 l -0.969,-3.406 a 13.158,13.158 0 0 1 -0.156,-0.643 6.97,6.97 0 0 1 -0.114,-0.584 11.1,11.1 0 0 1 -0.126,0.649 8.997,8.997 0 0 1 -0.147,0.593 L 43.296,36 H 42.28 l -0.738,-2.86 -0.75,-2.85 h 0.953 l 0.816,3.327 c 0.128,0.534 0.22,1.005 0.274,1.414 0.028,-0.221 0.071,-0.468 0.129,-0.742 0.057,-0.273 0.109,-0.495 0.156,-0.664 l 0.93,-3.336 h 0.925 l 0.954,3.352 c 0.09,0.31 0.187,0.773 0.289,1.39 0.039,-0.372 0.132,-0.846 0.28,-1.422 l 0.813,-3.32 h 0.946 z m 8.267,0 H 54.019 L 53.05,32.594 a 13.158,13.158 0 0 1 -0.156,-0.643 6.97,6.97 0 0 1 -0.113,-0.584 11.1,11.1 0 0 1 -0.127,0.649 8.997,8.997 0 0 1 -0.147,0.593 L 51.562,36 h -1.016 l -0.738,-2.86 -0.75,-2.85 h 0.953 l 0.817,3.327 c 0.127,0.534 0.218,1.005 0.273,1.414 0.029,-0.221 0.072,-0.468 0.13,-0.742 0.056,-0.273 0.108,-0.495 0.155,-0.664 l 0.93,-3.336 h 0.926 l 0.953,3.352 c 0.091,0.31 0.187,0.773 0.289,1.39 0.039,-0.372 0.133,-0.846 0.281,-1.422 l 0.813,-3.32 h 0.945 z m 2.364,-0.488 c 0,-0.19 0.05,-0.336 0.148,-0.438 0.1,-0.101 0.242,-0.152 0.43,-0.152 0.19,0 0.335,0.053 0.434,0.158 0.099,0.106 0.148,0.25 0.148,0.432 a 0.62,0.62 0 0 1 -0.15,0.44 c -0.1,0.107 -0.245,0.161 -0.432,0.161 -0.188,0 -0.33,-0.053 -0.43,-0.16 -0.099,-0.107 -0.148,-0.254 -0.148,-0.441 z m 5.07,-2.61 h 2.102 v 2.868 a 6.082,6.082 0 0 1 -0.99,0.238 7.01,7.01 0 0 1 -1.025,0.07 c -0.865,0 -1.531,-0.256 -2,-0.767 -0.469,-0.512 -0.703,-1.234 -0.703,-2.166 0,-0.92 0.264,-1.64 0.793,-2.159 0.528,-0.52 1.256,-0.779 2.183,-0.779 0.597,0 1.162,0.115 1.696,0.344 l -0.329,0.777 a 3.299,3.299 0 0 0 -1.39,-0.32 c -0.61,0 -1.091,0.191 -1.445,0.574 -0.355,0.383 -0.532,0.906 -0.532,1.57 0,0.698 0.16,1.229 0.479,1.592 0.319,0.363 0.778,0.545 1.377,0.545 0.302,0 0.625,-0.038 0.969,-0.113 V 33.703 H 62.47 v -0.8 z M 69.874,36 h -3.23 v -5.71 h 3.23 v 0.788 h -2.297 v 1.555 h 2.153 v 0.781 h -2.153 v 1.793 h 2.297 z m 3.907,0 h -0.934 v -4.91 h -1.68 v -0.8 h 4.294 v 0.8 h -1.68 z m 6.548,-1.55 c 0,0.507 -0.184,0.905 -0.551,1.195 -0.367,0.289 -0.874,0.433 -1.52,0.433 -0.645,0 -1.174,-0.1 -1.586,-0.3 v -0.883 c 0.26,0.122 0.538,0.218 0.83,0.289 0.294,0.07 0.566,0.105 0.819,0.105 0.37,0 0.642,-0.07 0.818,-0.21 a 0.688,0.688 0 0 0 0.264,-0.567 0.71,0.71 0 0 0 -0.242,-0.543 c -0.162,-0.149 -0.495,-0.324 -1,-0.528 -0.521,-0.21 -0.888,-0.451 -1.102,-0.722 a 1.529,1.529 0 0 1 -0.32,-0.977 c 0,-0.476 0.17,-0.851 0.508,-1.125 0.338,-0.273 0.793,-0.41 1.363,-0.41 0.547,0 1.091,0.12 1.633,0.36 l -0.297,0.761 c -0.508,-0.213 -0.961,-0.32 -1.36,-0.32 -0.302,0 -0.53,0.066 -0.687,0.197 a 0.648,0.648 0 0 0 -0.234,0.522 c 0,0.148 0.03,0.275 0.093,0.38 a 0.958,0.958 0 0 0 0.309,0.3 c 0.143,0.093 0.401,0.217 0.773,0.37 0.42,0.175 0.727,0.338 0.922,0.489 0.196,0.15 0.339,0.321 0.43,0.511 0.091,0.19 0.137,0.414 0.137,0.672 z M 82.133,36 v -5.71 h 0.934 v 4.91 h 2.418 V 36 Z m 5.036,0 v -5.71 h 0.934 V 36 Z m 7.9,0 h -1.145 l -2.809,-4.55 h -0.031 l 0.02,0.253 c 0.036,0.485 0.054,0.927 0.054,1.328 V 36 h -0.847 v -5.71 h 1.132 l 2.801,4.526 h 0.024 c -0.006,-0.06 -0.016,-0.278 -0.032,-0.654 -0.015,-0.376 -0.023,-0.67 -0.023,-0.88 v -2.993 h 0.855 V 36 Z m 4.543,-3.098 h 2.102 v 2.868 a 6.082,6.082 0 0 1 -0.99,0.238 7.01,7.01 0 0 1 -1.026,0.07 c -0.865,0 -1.531,-0.256 -2,-0.767 -0.469,-0.512 -0.703,-1.234 -0.703,-2.166 0,-0.92 0.264,-1.64 0.793,-2.159 0.529,-0.52 1.256,-0.779 2.183,-0.779 0.597,0 1.162,0.115 1.696,0.344 l -0.328,0.777 a 3.299,3.299 0 0 0 -1.391,-0.32 c -0.61,0 -1.091,0.191 -1.445,0.574 -0.354,0.383 -0.532,0.906 -0.532,1.57 0,0.698 0.16,1.229 0.479,1.592 0.319,0.363 0.778,0.545 1.377,0.545 0.302,0 0.625,-0.038 0.969,-0.113 v -1.473 h -1.184 v -0.8 z m 3.938,2.61 c 0,-0.19 0.05,-0.336 0.149,-0.438 0.099,-0.101 0.242,-0.152 0.43,-0.152 0.19,0 0.334,0.053 0.433,0.158 0.1,0.106 0.149,0.25 0.149,0.432 a 0.62,0.62 0 0 1 -0.15,0.44 c -0.101,0.107 -0.245,0.161 -0.432,0.161 -0.188,0 -0.331,-0.053 -0.43,-0.16 -0.1,-0.107 -0.149,-0.254 -0.149,-0.441 z m 5.165,-4.504 c -0.536,0 -0.958,0.19 -1.265,0.57 -0.308,0.38 -0.461,0.905 -0.461,1.574 0,0.7 0.147,1.23 0.443,1.59 0.296,0.36 0.723,0.54 1.283,0.54 0.242,0 0.477,-0.025 0.703,-0.073 a 7.83,7.83 0 0 0 0.707,-0.186 v 0.801 c -0.448,0.17 -0.955,0.254 -1.523,0.254 -0.836,0 -1.478,-0.253 -1.926,-0.76 -0.448,-0.506 -0.672,-1.23 -0.672,-2.173 0,-0.594 0.109,-1.114 0.326,-1.56 0.218,-0.444 0.532,-0.786 0.944,-1.022 0.411,-0.237 0.894,-0.356 1.449,-0.356 0.583,0 1.122,0.122 1.617,0.367 l -0.336,0.778 a 5.016,5.016 0 0 0 -0.611,-0.24 2.203,2.203 0 0 0 -0.678,-0.104 z m 8.251,2.129 c 0,0.93 -0.232,1.652 -0.697,2.168 -0.465,0.515 -1.123,0.773 -1.975,0.773 -0.862,0 -1.524,-0.256 -1.986,-0.767 -0.462,-0.512 -0.694,-1.24 -0.694,-2.182 0,-0.943 0.233,-1.667 0.698,-2.172 0.465,-0.505 1.128,-0.758 1.99,-0.758 0.849,0 1.505,0.257 1.969,0.77 0.463,0.513 0.695,1.235 0.695,2.168 z m -4.36,0 c 0,0.703 0.143,1.236 0.426,1.6 0.284,0.363 0.705,0.544 1.262,0.544 0.555,0 0.973,-0.18 1.256,-0.539 0.283,-0.36 0.424,-0.894 0.424,-1.605 0,-0.7 -0.14,-1.232 -0.42,-1.594 -0.28,-0.362 -0.697,-0.543 -1.252,-0.543 -0.56,0 -0.982,0.181 -1.268,0.543 -0.285,0.362 -0.427,0.893 -0.427,1.594 z m 8.756,2.863 -1.656,-4.77 h -0.031 c 0.044,0.709 0.066,1.373 0.066,1.993 V 36 h -0.847 v -5.71 h 1.316 l 1.586,4.542 h 0.023 l 1.633,-4.543 h 1.32 V 36 h -0.898 v -2.824 c 0,-0.284 0.007,-0.654 0.022,-1.11 0.014,-0.455 0.026,-0.731 0.037,-0.828 h -0.032 L 122.186,36 h -0.825 z"
       id="path6"
       inkscape:connector-curvature="0"
       style="fill:#a4a4a4" />
    <path
       d="M 19.154,0.178 19.085,0 H 11.303 L 0.029,18.685 0,18.733 4.254,29.555 H 4.252 L 9.144,42 h 7.71 L 28.094,23.227 28.164,23.109 19.155,0.178 Z M 7.19,19.56 8.606,23.162 5.264,28.782 1.639,19.56 h 5.55 z M 11.6,30.78 13.059,34.492 9.712,40.1 6.048,30.78 Z m 5.03,-19.56 -1.46,-3.715 3.346,-5.608 3.665,9.323 z m 5.274,1.225 -2.892,4.846 -1.904,-4.846 z M 9.397,21.83 8.295,19.026 14.378,8.831 l 1.094,2.784 z m 6.639,-8.77 2.184,5.557 -6.08,10.19 -2.176,-5.535 z m 2.75,6.996 1.146,2.916 -6.082,10.192 -1.146,-2.916 z M 14.604,6.066 12.701,1.225 h 4.792 z m -8.376,23.49 2.945,-4.953 1.946,4.952 H 6.228 Z m 7.396,6.374 1.904,4.845 H 10.733 Z M 1.67,18.335 11.626,1.833 13.812,7.393 7.284,18.335 Z m 24.738,5.33 -9.822,16.46 -2.17,-5.522 6.527,-10.938 z m 0.18,-1.225 h -5.551 l -1.459,-3.71 3.347,-5.608 z"
       id="path8"
       inkscape:connector-curvature="0"
       style="fill:#0085ff" />
  </g>
</svg>
