<?xml version="1.0" encoding="UTF-8" standalone="no"?>
<!-- Generator: Adobe Illustrator 23.1.1, SVG Export Plug-In . SVG Version: 6.00 Build 0)  -->

<svg
   xmlns:dc="http://purl.org/dc/elements/1.1/"
   xmlns:cc="http://creativecommons.org/ns#"
   xmlns:rdf="http://www.w3.org/1999/02/22-rdf-syntax-ns#"
   xmlns:svg="http://www.w3.org/2000/svg"
   xmlns="http://www.w3.org/2000/svg"
   xmlns:sodipodi="http://sodipodi.sourceforge.net/DTD/sodipodi-0.dtd"
   xmlns:inkscape="http://www.inkscape.org/namespaces/inkscape"
   version="1.1"
   id="Capa_1"
   x="0px"
   y="0px"
   viewBox="0 0 512 512"
   xml:space="preserve"
   sodipodi:docname="trepar_blue_tipografia.svg"
   width="512"
   height="512"
   inkscape:version="0.92.4 (5da689c313, 2019-01-14)"><metadata
   id="metadata33"><rdf:RDF><cc:Work
       rdf:about=""><dc:format>image/svg+xml</dc:format><dc:type
         rdf:resource="http://purl.org/dc/dcmitype/StillImage" /><dc:title></dc:title></cc:Work></rdf:RDF></metadata><defs
   id="defs31" /><sodipodi:namedview
   pagecolor="#ffffff"
   bordercolor="#666666"
   borderopacity="1"
   objecttolerance="10"
   gridtolerance="10"
   guidetolerance="10"
   inkscape:pageopacity="0"
   inkscape:pageshadow="2"
   inkscape:window-width="1920"
   inkscape:window-height="1080"
   id="namedview29"
   showgrid="false"
   showguides="false"
   inkscape:zoom="0.70710678"
   inkscape:cx="-418.16686"
   inkscape:cy="253.38777"
   inkscape:window-x="0"
   inkscape:window-y="0"
   inkscape:window-maximized="0"
   inkscape:current-layer="Capa_1"
   inkscape:snap-global="false"
   inkscape:pagecheckerboard="true" />
<style
   type="text/css"
   id="style2">
	.st0{fill:#ED1C24;}
	.st1{fill:#0071BC;}
</style>


<path
   style="fill:#ffffff;fill-opacity:1"
   d="M 285.49414 139.1543 C 285.19076 139.2097 280.05823 140.16883 272.5293 141.96289 C 268.76483 142.85992 264.40037 143.96594 259.74219 145.27148 C 255.08401 146.57703 250.13095 148.08268 245.1875 149.7793 C 240.24405 151.47592 235.30971 153.36333 230.68945 155.43359 C 228.37932 156.46872 226.14845 157.54856 224.0332 158.67383 C 221.91795 159.7991 219.91853 160.97036 218.07422 162.18359 C 216.22991 163.39683 214.54029 164.65216 213.04297 165.95117 C 211.54565 167.25019 210.24028 168.59199 209.16602 169.97461 C 208.09175 171.35722 207.24899 172.78206 206.67383 174.24609 C 206.09867 175.71013 205.79102 177.21258 205.79102 178.75586 C 205.79102 180.31101 205.99775 181.76802 206.37891 183.13477 C 206.76006 184.50151 207.31665 185.77945 208.02148 186.97852 C 208.72632 188.17758 209.57779 189.29751 210.54883 190.34961 C 211.51986 191.4017 212.61125 192.3847 213.79102 193.31055 C 216.15054 195.16224 218.86918 196.7829 221.71875 198.25391 C 224.56832 199.72491 227.54793 201.04668 230.42773 202.30273 C 233.30754 203.55879 236.08688 204.74822 238.53711 205.95508 C 240.98734 207.16194 243.10908 208.38557 244.66992 209.70898 C 245.45034 210.37069 246.09064 211.05738 246.5625 211.7793 C 247.03436 212.50122 247.33754 213.25965 247.44336 214.0625 C 247.54918 214.86535 247.45636 215.71268 247.13867 216.61719 C 246.82098 217.52169 246.2772 218.48289 245.47852 219.50977 C 243.49468 222.0608 241.22778 224.68231 238.67773 227.42773 C 236.12769 230.17316 233.29463 233.04351 230.17773 236.08984 C 223.94393 242.18251 216.57551 248.9826 208.07031 256.91797 C 211.75308 263.51846 214.94554 269.09041 217.92773 274.13477 C 220.90993 279.17912 223.68219 283.69616 226.52539 288.1875 C 232.21179 297.17019 238.18173 306.0504 246.68164 318.83984 C 247.14067 319.53102 247.72267 320.07768 248.36719 320.4668 C 249.01171 320.85592 249.71938 321.08776 250.42969 321.14844 C 251.13999 321.20911 251.85338 321.09883 252.50977 320.80469 C 253.16616 320.51054 253.76528 320.03082 254.24805 319.35547 C 256.69619 315.92068 260.09929 311.08584 264.1875 305.11914 C 268.27571 299.15245 273.04982 292.0555 278.23828 284.09375 C 283.42674 276.132 289.03041 267.30667 294.7793 257.88672 C 300.52818 248.46677 306.42191 238.45068 312.19141 228.10938 C 313.10946 226.46321 313.81167 224.71207 314.28125 222.90234 C 314.75083 221.09262 314.98711 219.22598 314.97656 217.34766 C 314.97656 215.47527 314.72226 213.6576 314.24609 211.89453 C 313.76992 210.13146 313.07244 208.42285 312.18359 206.76562 C 311.29474 205.1084 310.2146 203.50211 308.97656 201.94727 C 307.73852 200.39242 306.3421 198.88758 304.81836 197.43164 C 303.29462 195.9757 301.64439 194.56948 299.89844 193.20898 C 298.15248 191.84849 296.31093 190.53414 294.40625 189.26562 C 290.59689 186.72859 286.53402 184.37158 282.4707 182.18164 C 274.34407 177.80176 266.21802 174.0896 260.12305 170.93164 C 257.07556 169.35266 254.53551 167.91276 252.75781 166.59766 C 251.86896 165.9401 251.16953 165.31358 250.69336 164.7168 C 250.21719 164.12001 249.96484 163.55121 249.96484 163.01172 C 249.96484 162.47883 250.09904 161.92195 250.35352 161.34375 C 250.60799 160.76555 250.98159 160.16789 251.45703 159.55469 C 252.40792 158.32829 253.76667 157.04094 255.40039 155.73633 C 257.03411 154.43171 258.94369 153.10903 260.99219 151.80859 C 263.04068 150.50816 265.22861 149.22947 267.42383 148.01562 C 271.81427 145.58793 276.23061 143.41705 279.59961 141.83008 C 282.96861 140.2431 285.29101 139.24135 285.49414 139.1543 z "
   id="path4625" /><path
   style="fill:#ffffff;fill-opacity:1"
   d="M 285.49414 139.1543 C 285.29101 139.24135 282.96861 140.2431 279.59961 141.83008 C 276.23061 143.41705 271.81427 145.58793 267.42383 148.01562 C 265.22861 149.22947 263.04068 150.50816 260.99219 151.80859 C 258.94369 153.10903 257.03411 154.43171 255.40039 155.73633 C 253.76667 157.04094 252.40792 158.32829 251.45703 159.55469 C 250.98159 160.16789 250.60799 160.76555 250.35352 161.34375 C 250.09904 161.92195 249.96484 162.47883 249.96484 163.01172 C 249.96484 163.55121 250.21719 164.12001 250.69336 164.7168 C 251.16953 165.31358 251.86896 165.9401 252.75781 166.59766 C 254.53551 167.91276 257.07556 169.35266 260.12305 170.93164 C 266.21802 174.0896 274.34407 177.80176 282.4707 182.18164 C 286.53402 184.37158 290.59689 186.72859 294.40625 189.26562 C 296.31093 190.53414 298.15248 191.84849 299.89844 193.20898 C 301.64439 194.56948 303.29462 195.9757 304.81836 197.43164 C 306.3421 198.88758 307.73852 200.39242 308.97656 201.94727 C 310.2146 203.50211 311.29474 205.1084 312.18359 206.76562 C 313.07244 208.42285 313.76992 210.13146 314.24609 211.89453 C 314.72226 213.6576 314.97656 215.47527 314.97656 217.34766 C 314.98711 219.22598 314.75083 221.09262 314.28125 222.90234 C 313.81167 224.71207 313.10946 226.46321 312.19141 228.10938 C 306.42191 238.45068 300.52818 248.46677 294.7793 257.88672 C 289.03041 267.30667 283.42674 276.132 278.23828 284.09375 C 273.04982 292.0555 268.27571 299.15245 264.1875 305.11914 C 260.09929 311.08584 256.69619 315.92068 254.24805 319.35547 C 253.76528 320.03082 253.16616 320.51054 252.50977 320.80469 C 251.85338 321.09883 251.13999 321.20911 250.42969 321.14844 C 249.71938 321.08776 249.01171 320.85592 248.36719 320.4668 C 247.72267 320.07768 247.14067 319.53102 246.68164 318.83984 C 238.18173 306.0504 232.21179 297.17019 226.52539 288.1875 C 223.68219 283.69616 220.90993 279.17912 217.92773 274.13477 C 214.94554 269.09041 211.75308 263.51846 208.07031 256.91797 C 216.57551 248.9826 223.94393 242.18251 230.17773 236.08984 C 233.29463 233.04351 236.12769 230.17316 238.67773 227.42773 C 241.22778 224.68231 243.49468 222.0608 245.47852 219.50977 C 246.2772 218.48289 246.82098 217.52169 247.13867 216.61719 C 247.45636 215.71268 247.54918 214.86535 247.44336 214.0625 C 247.33754 213.25965 247.03436 212.50122 246.5625 211.7793 C 246.09064 211.05738 245.45034 210.37069 244.66992 209.70898 C 243.10908 208.38557 240.98734 207.16194 238.53711 205.95508 C 236.08688 204.74822 233.30754 203.55879 230.42773 202.30273 C 227.54793 201.04668 224.56832 199.72491 221.71875 198.25391 C 218.86918 196.7829 216.15054 195.16224 213.79102 193.31055 C 212.61125 192.3847 211.51986 191.4017 210.54883 190.34961 C 209.57779 189.29751 208.72632 188.17758 208.02148 186.97852 C 207.31665 185.77945 206.76006 184.50151 206.37891 183.13477 C 205.99775 181.76802 205.79102 180.31101 205.79102 178.75586 C 205.79102 177.21258 206.09867 175.71013 206.67383 174.24609 C 207.24899 172.78206 208.09175 171.35722 209.16602 169.97461 C 210.24028 168.59199 211.54565 167.25019 213.04297 165.95117 C 214.54029 164.65216 216.22991 163.39683 218.07422 162.18359 C 219.91853 160.97036 221.91795 159.7991 224.0332 158.67383 C 226.14845 157.54856 228.37932 156.46872 230.68945 155.43359 C 235.30971 153.36333 240.24405 151.47592 245.1875 149.7793 C 250.13095 148.08268 255.08401 146.57703 259.74219 145.27148 C 264.40037 143.96594 268.76483 142.85992 272.5293 141.96289 C 280.05823 140.16883 285.19076 139.2097 285.49414 139.1543 z "
   id="path4623" /><path
   style="fill:#ffffff;fill-opacity:1"
   d="M 254.57617 28.544922 C 251.25746 28.544922 247.97819 28.712795 244.74609 29.041016 C 241.514 29.369236 238.32859 29.857713 235.19922 30.498047 C 232.06985 31.138381 228.99491 31.930847 225.98438 32.867188 C 222.97384 33.803528 220.02794 34.883369 217.15234 36.099609 C 214.27675 37.31585 211.4726 38.668403 208.74805 40.148438 C 206.0235 41.628472 203.37771 43.23517 200.82031 44.962891 C 198.26291 46.690611 195.79406 48.538746 193.41992 50.498047 C 191.04578 52.457347 188.76657 54.528352 186.5918 56.703125 C 184.41702 58.877898 182.34602 61.15711 180.38672 63.53125 C 178.42742 65.90539 176.57928 68.374241 174.85156 70.931641 C 173.12384 73.48904 171.51714 76.134823 170.03711 78.859375 C 168.55708 81.583927 167.20452 84.388074 165.98828 87.263672 C 164.77204 90.13927 163.6922 93.085166 162.75586 96.095703 C 161.81952 99.10624 161.02705 102.18118 160.38672 105.31055 C 159.74638 108.43992 159.25791 111.62337 158.92969 114.85547 C 158.60147 118.08756 158.43359 121.36879 158.43359 124.6875 C 158.43359 127.38362 158.68144 130.32907 159.15234 133.49609 C 159.62324 136.66312 160.31731 140.05166 161.20898 143.62891 L 199.71289 101.04883 L 216.4707 125.93164 L 255.06055 66.015625 L 293.65039 125.93164 L 310.4082 101.04883 L 348.14258 142.7832 C 348.97094 139.38534 349.61291 136.1587 350.04688 133.13281 C 350.48084 130.10693 350.70703 127.28338 350.70703 124.6875 C 350.70703 121.36879 350.53916 118.08756 350.21094 114.85547 C 349.88272 111.62337 349.39423 108.43992 348.75391 105.31055 C 348.11358 102.18118 347.32108 99.10624 346.38477 96.095703 C 345.44845 93.085166 344.36854 90.13927 343.15234 87.263672 C 341.93614 84.388074 340.58349 81.583927 339.10352 78.859375 C 337.62355 76.134823 336.01669 73.48904 334.28906 70.931641 C 332.56143 68.374241 330.71308 65.90539 328.75391 63.53125 C 326.79473 61.15711 324.72344 58.877898 322.54883 56.703125 C 320.37422 54.528352 318.09659 52.457347 315.72266 50.498047 C 313.34873 48.538746 310.87941 46.690611 308.32227 44.962891 C 305.76512 43.23517 303.12072 41.628472 300.39648 40.148438 C 297.67224 38.668403 294.86741 37.31585 291.99219 36.099609 C 289.11696 34.883369 286.17026 33.803528 283.16016 32.867188 C 280.15005 31.930847 277.07808 31.138381 273.94922 30.498047 C 270.82035 29.857713 267.63581 29.369236 264.4043 29.041016 C 261.17278 28.712795 257.89423 28.544922 254.57617 28.544922 z "
   id="path4621" /><g
   id="g20"
   transform="matrix(1.055235,0,0,1.055235,-758.45017,-308.39245)">
	<path
   class="st1"
   d="m 805.1,705.15 v 42.35 h -21.18 v -42.35 h -7.02 v -17.67 h 7.02 v -18.02 h 21.18 v 18.02 h 12.05 v 17.67 z"
   id="path8"
   inkscape:connector-curvature="0"
   style="fill:#0071bc" />
	<path
   class="st1"
   d="m 821.24,687.48 h 21.18 v 9.83 c 2.26,-3.59 5.03,-6.34 8.31,-8.25 3.28,-1.91 7.1,-2.87 11.47,-2.87 0.54,0 1.15,0 1.81,0 0.66,0 1.42,0.08 2.28,0.23 v 20.24 c -2.81,-1.4 -5.85,-2.11 -9.13,-2.11 -4.91,0 -8.6,1.46 -11.06,4.39 -2.46,2.93 -3.69,7.2 -3.69,12.81 v 25.74 h -21.18 v -60.01 z"
   id="path10"
   inkscape:connector-curvature="0"
   style="fill:#0071bc" />
	<path
   class="st1"
   d="m 891.67,721.06 c 0,9.13 4.29,13.69 12.87,13.69 4.6,0 8.07,-1.87 10.41,-5.62 h 20.48 c -4.14,13.73 -14.47,20.59 -31,20.59 -5.07,0 -9.71,-0.76 -13.92,-2.28 -4.21,-1.52 -7.82,-3.69 -10.82,-6.49 -3,-2.81 -5.32,-6.16 -6.96,-10.06 -1.64,-3.9 -2.46,-8.27 -2.46,-13.1 0,-4.99 0.78,-9.5 2.34,-13.51 1.56,-4.02 3.78,-7.43 6.67,-10.24 2.88,-2.81 6.38,-4.97 10.47,-6.49 4.09,-1.52 8.72,-2.28 13.86,-2.28 5.07,0 9.63,0.76 13.69,2.28 4.05,1.52 7.49,3.73 10.3,6.61 2.81,2.89 4.95,6.42 6.44,10.59 1.48,4.17 2.22,8.87 2.22,14.1 v 2.22 h -44.59 z m 24.81,-12.29 c -0.7,-2.96 -2.15,-5.34 -4.33,-7.14 -2.18,-1.79 -4.84,-2.69 -7.96,-2.69 -3.28,0 -5.95,0.86 -8.01,2.57 -2.07,1.72 -3.38,4.14 -3.92,7.25 h 24.22 z"
   id="path12"
   inkscape:connector-curvature="0"
   style="fill:#0071bc" />
	<path
   class="st1"
   d="m 965.62,777.45 h -21.18 v -89.97 h 21.18 v 6.67 c 4.52,-5.69 10.69,-8.54 18.49,-8.54 4.29,0 8.29,0.84 11.99,2.51 3.7,1.68 6.92,3.96 9.65,6.84 2.73,2.89 4.86,6.28 6.38,10.18 1.52,3.9 2.28,8.07 2.28,12.52 0,4.45 -0.76,8.58 -2.28,12.4 -1.52,3.82 -3.63,7.18 -6.32,10.06 -2.69,2.89 -5.87,5.15 -9.54,6.79 -3.67,1.64 -7.65,2.46 -11.93,2.46 -7.49,0 -13.73,-2.57 -18.72,-7.72 z m 26.67,-59.79 c 0,-1.87 -0.33,-3.65 -0.99,-5.32 -0.66,-1.68 -1.62,-3.14 -2.87,-4.39 -1.25,-1.25 -2.71,-2.24 -4.39,-2.98 -1.68,-0.74 -3.49,-1.11 -5.44,-1.11 -1.87,0 -3.63,0.35 -5.26,1.05 -1.63,0.7 -3.06,1.68 -4.27,2.92 -1.21,1.25 -2.18,2.71 -2.92,4.39 -0.74,1.68 -1.11,3.45 -1.11,5.32 0,1.87 0.35,3.63 1.05,5.27 0.7,1.64 1.68,3.06 2.92,4.27 1.25,1.21 2.71,2.18 4.39,2.92 1.68,0.74 3.45,1.11 5.32,1.11 1.87,0 3.63,-0.35 5.27,-1.05 1.64,-0.7 3.06,-1.68 4.27,-2.93 1.21,-1.25 2.18,-2.69 2.93,-4.33 0.73,-1.63 1.1,-3.34 1.1,-5.14 z"
   id="path14"
   inkscape:connector-curvature="0"
   style="fill:#0071bc" />
	<path
   class="st1"
   d="m 1068.92,687.48 h 21.29 v 60.02 h -21.29 v -6.67 c -4.52,5.69 -10.65,8.54 -18.37,8.54 -4.37,0 -8.39,-0.8 -12.05,-2.4 -3.67,-1.6 -6.86,-3.84 -9.59,-6.73 -2.73,-2.88 -4.86,-6.28 -6.38,-10.18 -1.52,-3.9 -2.28,-8.15 -2.28,-12.75 0,-4.29 0.74,-8.37 2.22,-12.23 1.48,-3.86 3.55,-7.23 6.2,-10.12 2.65,-2.88 5.81,-5.17 9.48,-6.84 3.67,-1.68 7.72,-2.51 12.17,-2.51 7.49,0 13.69,2.61 18.6,7.84 z m -26.67,29.83 c 0,1.95 0.35,3.76 1.05,5.44 0.7,1.68 1.66,3.14 2.87,4.39 1.21,1.25 2.65,2.22 4.33,2.93 1.68,0.7 3.49,1.05 5.44,1.05 1.87,0 3.65,-0.35 5.32,-1.05 1.68,-0.7 3.12,-1.68 4.33,-2.93 1.21,-1.25 2.18,-2.69 2.93,-4.33 0.74,-1.64 1.11,-3.39 1.11,-5.27 0,-1.88 -0.37,-3.65 -1.11,-5.32 -0.74,-1.68 -1.72,-3.14 -2.93,-4.39 -1.21,-1.25 -2.65,-2.22 -4.33,-2.92 -1.68,-0.7 -3.45,-1.05 -5.32,-1.05 -1.95,0 -3.76,0.35 -5.44,1.05 -1.68,0.7 -3.12,1.68 -4.33,2.92 -1.21,1.25 -2.16,2.67 -2.87,4.27 -0.7,1.61 -1.05,3.34 -1.05,5.21 z"
   id="path16"
   inkscape:connector-curvature="0"
   style="fill:#0071bc" />
	<path
   class="st1"
   d="m 1100.75,687.48 h 21.18 v 9.83 c 2.26,-3.59 5.03,-6.34 8.31,-8.25 3.28,-1.91 7.1,-2.87 11.47,-2.87 0.54,0 1.15,0 1.81,0 0.66,0 1.42,0.08 2.28,0.23 v 20.24 c -2.81,-1.4 -5.85,-2.11 -9.13,-2.11 -4.91,0 -8.6,1.46 -11.06,4.39 -2.46,2.93 -3.69,7.2 -3.69,12.81 v 25.74 h -21.18 v -60.01 z"
   id="path18"
   inkscape:connector-curvature="0"
   style="fill:#0071bc" />
</g>
<path
   class="st0"
   d="m -1668.53,780.51 c 0.02,-0.01 0.03,-0.01 0.03,-0.01"
   id="path22"
   inkscape:connector-curvature="0"
   style="fill:#ed1c24" />
<path
   class="st0"
   d="m -1668.53,780.51 c 0.02,-0.01 0.03,-0.01 0.03,-0.01"
   id="path24"
   inkscape:connector-curvature="0"
   style="fill:#ed1c24" />
<path
   class="st0"
   d="m -1668.53,780.51 c 0.02,-0.01 0.03,-0.01 0.03,-0.01"
   id="path26"
   inkscape:connector-curvature="0"
   style="fill:#ed1c24" />
<path
   style="fill:#0071bc;stroke-width:1.05523503"
   inkscape:connector-curvature="0"
   class="st1"
   d="m 254.59413,-0.0110288 c -68.86464,0 -124.68657,55.8219308 -124.68657,124.6971188 0,11.7342 3.50338,26.63412 9.30718,43.28573 12.45177,35.68805 35.4981,79.4381 57.41533,117.22606 14.34065,24.73471 28.19588,46.91575 38.26282,62.6282 7.40775,11.56538 24.21765,11.81863 31.97362,0.48541 12.38846,-18.08673 30.2747,-44.96356 48.15038,-74.48904 21.46348,-35.44534 42.9164,-74.70009 54.79835,-107.10636 5.93042,-16.1451 9.47601,-30.59126 9.47601,-42.03 C 379.28075,55.821455 323.45877,-0.0110288 254.59413,-0.0110288 Z M 312.20996,228.09912 c -23.07799,41.36521 -48.15037,77.50701 -57.94295,91.24617 -1.93108,2.7014 -5.72993,2.24765 -7.56604,-0.51707 -16.99983,-25.57889 -23.87997,-35.51921 -38.61105,-61.92119 17.01039,-15.87073 29.47272,-27.20395 37.40808,-37.40808 12.7789,-16.43002 -39.68738,-15.87074 -39.68738,-40.75318 0,-24.6925 78.48838,-39.38137 79.7019,-39.60297 -0.81254,0.34823 -35.52977,15.33256 -35.52977,23.85886 0,8.63182 65.01303,24.37593 65.01303,54.33406 v 0 c 0.0211,3.75664 -0.94971,7.47107 -2.78582,10.7634 z m 35.95186,-85.32631 -37.73521,-41.73454 -16.75713,24.88244 -38.58994,-59.916238 -38.58995,59.916238 -16.75713,-24.88244 -38.50552,42.57872 c -1.78335,-7.15449 -2.77527,-13.54921 -2.77527,-18.94145 0,-53.099427 43.04303,-96.142463 96.14246,-96.142463 53.08887,0 96.13191,43.043036 96.13191,96.142463 0,5.19174 -0.9075,11.30155 -2.56422,18.09727 z"
   id="path6-3" /></svg>
